<?xml version="1.0" encoding="utf-8"?>
<!-- Generator: Adobe Illustrator 24.1.2, SVG Export Plug-In . SVG Version: 6.00 Build 0)  -->
<svg version="1.1" id="Camada_1" xmlns="http://www.w3.org/2000/svg" xmlns:xlink="http://www.w3.org/1999/xlink" x="0px" y="0px"
	 viewBox="0 0 400 400" style="enable-background:new 0 0 400 400;" xml:space="preserve">
<style type="text/css">
	.st0{fill:#7C737C;}
	.st1{fill:none;stroke:#7C737C;stroke-width:12;stroke-miterlimit:10;}
</style>
<g>
	<path class="st0" d="M200,11.5c25.5,0,50.1,5,73.4,14.8c22.4,9.5,42.6,23.1,59.9,40.4c17.3,17.3,30.9,37.5,40.4,59.9
		c9.8,23.2,14.8,47.9,14.8,73.4s-5,50.1-14.8,73.4c-9.5,22.4-23.1,42.6-40.4,59.9c-17.3,17.3-37.5,30.9-59.9,40.4
		c-23.2,9.8-47.9,14.8-73.4,14.8s-50.1-5-73.4-14.8c-22.4-9.5-42.6-23.1-59.9-40.4c-17.3-17.3-30.9-37.5-40.4-59.9
		c-9.8-23.2-14.8-47.9-14.8-73.4s5-50.1,14.8-73.4c9.5-22.4,23.1-42.6,40.4-59.9c17.3-17.3,37.5-30.9,59.9-40.4
		C149.9,16.5,174.5,11.5,200,11.5 M200-0.5C89.3-0.5-0.5,89.3-0.5,200S89.3,400.5,200,400.5S400.5,310.7,400.5,200
		S310.7-0.5,200-0.5L200-0.5z"/>
</g>
<polyline class="st1" points="120.8,228.6 200,292.5 279.2,228.6 "/>
<line class="st1" x1="200" y1="292.5" x2="200" y2="110.5"/>
</svg>
